<?xml version="1.0" encoding="UTF-8" standalone="no"?>
<!-- Created with Inkscape (http://www.inkscape.org/) -->
<svg xmlns:svg="http://www.w3.org/2000/svg" xmlns="http://www.w3.org/2000/svg" version="1.2" width="64" height="64" id="svg2816">
  <defs id="defs2818"/>
  <g id="layer1">
    <g transform="translate(2,0.36363632)" id="flowRoot2965" style="font-size:40px;font-style:normal;font-variant:normal;font-weight:normal;font-stretch:normal;fill:#000000;fill-opacity:1;stroke:none;font-family:Andalus;-inkscape-font-specification:Andalus">
      <path d="m 45.60612,53.109387 -1.269531,-1.65039 C 43.885157,50.104842 43.391451,48.736571 42.855469,47.354179 42.347615,45.971817 41.71285,44.688181 40.951172,43.503268 40.217626,42.29018 39.328955,41.204026 38.285156,40.244804 37.241284,39.285625 35.957648,38.552119 34.434245,38.044283 l 0,20.86263 -1.48112,-1.565755 c -0.564267,-2.397996 -1.509362,-4.640832 -2.835286,-6.728515 -1.297771,-2.115872 -2.863525,-3.97785 -4.697266,-5.585938 -1.83379,-1.608054 -3.893249,-2.919902 -6.178386,-3.935547 -2.256959,-1.043815 -4.626749,-1.692685 -7.109374,-1.946614 l -4.5279953,-6.47461 c 1.4387945,-1.297712 2.9481243,-2.468501 4.5279953,-3.51237 1.60806,-1.072014 3.244343,-2.073532 4.908854,-3.004557 1.692691,-0.930953 3.399503,-1.819623 5.120442,-2.666015 1.720898,-0.846315 3.427711,-1.692668 5.120443,-2.539063 -0.310355,-0.423135 -0.691214,-0.846312 -1.142578,-1.269531 -0.451413,-0.423134 -0.945119,-0.803993 -1.48112,-1.142578 -0.507835,-0.338498 -1.029753,-0.60651 -1.565755,-0.804037 -0.507834,-0.22565 -0.987434,-0.338497 -1.438802,-0.338541 -0.536044,0.761762 -1.255444,1.495268 -2.158203,2.20052 -0.902795,0.705337 -1.890207,1.325996 -2.96224,1.86198 -1.072062,0.507852 -2.200534,0.931029 -3.385416,1.269531 -1.156695,0.310369 -2.27106,0.465534 -3.3430995,0.465495 -2.1158916,3.9e-5 -3.8085982,-0.535985 -5.078125,-1.608073 C 3.4858921,20.510688 2.865233,19.001358 2.8652344,17.0547 c -1.4e-6,-0.620614 0.084634,-1.227167 0.2539062,-1.819662 0.1974808,-0.5924 0.4795986,-1.114318 0.8463542,-1.565755 0.3667506,-0.45134 0.8322449,-0.803987 1.3964844,-1.057942 0.5924434,-0.282069 1.2836319,-0.423128 2.0735677,-0.423178 1.1848887,5e-5 2.0876655,0.423227 2.7083331,1.269532 0.620651,0.81819 0.93098,1.819708 0.93099,3.004557 3.865004,-0.338496 6.869558,-2.341532 9.013672,-6.009115 2.228711,1.100311 4.133006,2.398053 5.71289,3.89323 1.579835,1.46706 3.00453,3.329037 4.274089,5.585937 l 0,-14.938151 4.358724,4.358724 0,23.232422 c 1.438767,0.818171 2.750615,1.791477 3.935547,2.919922 1.184857,1.128497 2.144058,2.426239 2.877604,3.893229 l 0,-34.0234376 4.358724,3.1738281 0,5.2050785 9.986979,0 0,4.358724 -9.986979,0 0,34.996744 M 30.075521,26.576184 c -1.072076,0.338577 -2.115912,0.761754 -3.131511,1.269532 -0.987437,0.507846 -1.988955,1.100293 -3.004557,1.777343 -1.015646,0.648904 -2.073588,1.38241 -3.173828,2.200521 -1.072067,0.818172 -2.242856,1.706843 -3.51237,2.666016 2.651891,1.382404 5.021681,3.004582 7.109375,4.866536 2.115861,1.833788 4.020156,3.991989 5.712891,6.47461 l 0,-19.254558 0,0" id="path2974" style="font-size:65px;font-family:AdorshoLipi;-inkscape-font-specification:AdorshoLipi"/>
    </g>
  </g>
</svg>